<svg width="1200" height="760" viewBox="0 0 1200 760" fill="none" xmlns="http://www.w3.org/2000/svg">
  <rect width="1200" height="760" rx="64" fill="#15110B"/>
  <circle cx="930" cy="130" r="260" fill="#D7B56D" opacity=".18"/>
  <circle cx="190" cy="690" r="300" fill="#7A1F18" opacity=".28"/>
  <path d="M185 415C330 250 520 185 735 213C890 233 990 301 1068 406" stroke="#D7B56D" stroke-width="4" opacity=".45"/>
  <path d="M173 470C370 345 563 325 752 373C885 407 979 462 1052 535" stroke="#FFFFFF" stroke-width="3" opacity=".18"/>
  <g fill="#D7B56D">
    <circle cx="272" cy="365" r="14"/><circle cx="482" cy="267" r="12"/><circle cx="690" cy="291" r="15"/><circle cx="865" cy="355" r="12"/><circle cx="970" cy="455" r="15"/>
  </g>
  <g fill="#FFFFFF" opacity=".85">
    <rect x="128" y="126" width="390" height="76" rx="20" opacity=".08"/>
    <text x="160" y="176" font-family="Arial, sans-serif" font-size="34" font-weight="900">Atomy</text>
    <text x="160" y="230" font-family="Arial, sans-serif" font-size="22" font-weight="600" opacity=".75">южнокорейская компания с международной сетью</text>
  </g>
  <g transform="translate(128 500)">
    <rect width="270" height="122" rx="28" fill="#FFFFFF" opacity=".09"/>
    <text x="28" y="49" font-family="Arial, sans-serif" font-size="25" font-weight="900" fill="#D7B56D">Quality</text>
    <text x="28" y="84" font-family="Arial, sans-serif" font-size="19" font-weight="600" fill="#FFFFFF" opacity=".72">качество продукта</text>
  </g>
  <g transform="translate(430 500)">
    <rect width="270" height="122" rx="28" fill="#FFFFFF" opacity=".09"/>
    <text x="28" y="49" font-family="Arial, sans-serif" font-size="25" font-weight="900" fill="#D7B56D">Price</text>
    <text x="28" y="84" font-family="Arial, sans-serif" font-size="19" font-weight="600" fill="#FFFFFF" opacity=".72">разумная цена</text>
  </g>
  <g transform="translate(732 500)">
    <rect width="270" height="122" rx="28" fill="#FFFFFF" opacity=".09"/>
    <text x="28" y="49" font-family="Arial, sans-serif" font-size="25" font-weight="900" fill="#D7B56D">Trust</text>
    <text x="28" y="84" font-family="Arial, sans-serif" font-size="19" font-weight="600" fill="#FFFFFF" opacity=".72">узнаваемый бренд</text>
  </g>
</svg>
